<?xml version="1.0" encoding="utf-8"?>
<!-- Generator: Adobe Illustrator 21.0.2, SVG Export Plug-In . SVG Version: 6.00 Build 0)  -->
<svg version="1.1" id="Layer_1" xmlns="http://www.w3.org/2000/svg" xmlns:xlink="http://www.w3.org/1999/xlink" x="0px" y="0px"
	 viewBox="0 0 441.7 151.1" style="enable-background:new 0 0 441.7 151.1;" xml:space="preserve" width="2000" height="600">
<style type="text/css">
	.st0{fill-rule:evenodd;clip-rule:evenodd;fill:#003663;}
	.st1{fill:#003663;}
	.st2{fill:#2BBDBE;}
	.st3{fill-rule:evenodd;clip-rule:evenodd;fill:none;}
</style>
<g>
	<path class="st0" d="M176.2,58.1c-1.5,0-3,0-4.6,0c0,12.4,0,24.6,0,37c-3.7,0-7.3,0-11,0c0-12.3,0-24.5,0-36.9c-1.6,0-3,0-4.6,0
		c0-3.4,0-6.7,0-10c1.3-0.5,2.8,0,4.5-0.3c0-5.6,0-11.3,0-17.1c3.7,0,7.2,0,10.9,0c0,5.7,0,11.3,0,17c1.6,0.4,3.2,0,4.8,0.3
		C176.2,51.3,176.2,54.6,176.2,58.1z"/>
	<path class="st0" d="M343.3,95.1c-3.7,0-7.1,0-10.8,0c0-21.5,0-42.9,0-64.5c3.6,0,7.1,0,10.8,0C343.3,52.1,343.3,73.5,343.3,95.1z"
		/>
	<path class="st0" d="M118.3,48c3.6,0,7.1,0,10.8,0c0,1.3,0,2.5,0,3.9c5.6-3.5,11.4-5,17.9-4.1c0,3.3,0,6.5,0,9.8c-2-0.2-4-0.4-6,0
		c-5.4,1.1-9.1,4.2-11.3,9.2c-0.4,0.9-0.5,1.9-0.5,2.9c0,7.7,0,15.4,0,23.2c0,0.6,0,1.3,0,2.1c-3.6,0-7.1,0-10.8,0
		C118.3,79.4,118.3,63.8,118.3,48z"/>
	<path class="st0" d="M318.5,48c0,15.7,0,31.3,0,47c-3.6,0-7,0-10.7,0c0-15.6,0-31.3,0-47C311.3,48,314.8,48,318.5,48z"/>
	<path class="st0" d="M293.1,57c-3.2-4.5-7.5-7.6-12.9-9.3c-7.7-2.4-14.9-1.1-21.8,3.3c0-13.6,0-26.9,0-40.3c-3.7,0-7.2,0-10.7,0
		c0,28.2,0,56.3,0,84.4c3.7,0,7.2,0,10.8,0c0-1,0-1.9,0-2.9c5.6,3.5,11.6,5.1,18,4.1c6.5-1,11.9-4.2,16-9.3
		C299.4,78.4,299.7,66.1,293.1,57z M272.9,86.9c-8.4-0.2-15-7.1-14.8-15.5c0.1-8.4,7.1-15.1,15.4-15c8.4,0.2,15.1,7.1,15,15.6
		C288.2,80.2,281.2,87,272.9,86.9z"/>
	<path class="st0" d="M45.7,57.5c-3.9-5.7-9.3-9.2-16-10.5c-6.7-1.3-12.9,0.2-18.7,3.9c-0.3-1.1,0.1-2.1-0.4-2.9C7.1,48,3.6,48,0,48
		c0,28.3,0,56.4,0,84.6c3.6,0,7.1,0,10.8,0c0-13.4,0-26.7,0-40.3c5.6,3.5,11.4,5.1,17.8,4.1c6.4-0.9,11.7-3.9,15.9-8.9
		C51.5,79,52,66.7,45.7,57.5z M25.5,86.9c-8.3,0-15.2-6.8-15.3-15.1c-0.1-8.3,6.9-15.3,15.3-15.3c8.3,0,15.2,6.9,15.2,15.2
		C40.7,79.9,33.8,86.8,25.5,86.9z"/>
	<path class="st0" d="M223.1,48c0,1-0.1,1.8-0.1,2.8c-12.9-8-26-3.6-32.9,4.1c-7.2,8.1-8.4,20.4-2.7,29.7c3.8,6.1,9.1,9.9,16.1,11.4
		c7,1.5,13.4,0,19.4-3.7c0.1,1.1,0.1,2,0.1,2.9c3.6,0,7.2,0,10.7,0c0-15.8,0-31.5,0-47.2C230.2,48,226.7,48,223.1,48z M208.4,86.9
		c-8.3,0-15.2-7-15.2-15.2c0-8.4,7-15.3,15.4-15.2c8.3,0.1,15.2,7,15.1,15.3C223.6,80,216.7,86.9,208.4,86.9z"/>
	<path class="st0" d="M84.3,46.6c-13.7,0-25.1,11.2-25.1,24.9c0,13.9,11.2,25.2,25,25.2c13.8,0,24.9-11.2,25-25
		C109.2,57.8,98.1,46.6,84.3,46.6z M84.6,86.9c-8.4,0-15.2-6.9-15.2-15.4c0-8.3,6.9-15.1,15.3-15.1c8.3,0,15.1,6.9,15.1,15.3
		C99.7,80,92.9,86.9,84.6,86.9z"/>
	<g>
		<path class="st1" d="M33,121.3v10.3h6.7v-10.3h2.7v24h-2.7V134H33v11.2h-2.7v-24H33z"/>
		<path class="st1" d="M55.5,133.9h-6v9h6.8v2.4h-9.6v-24h9.2v2.4h-6.4v7.9h6V133.9z"/>
		<path class="st1" d="M62.3,138.1l-1.6,7.2H58l5.5-24h3l5.3,24h-2.7l-1.6-7.2H62.3z M67.2,135.9l-1.2-6.1c-0.4-1.7-0.7-3.7-1-5.5
			h-0.1c-0.3,1.8-0.6,3.9-1,5.5l-1.2,6.1H67.2z"/>
		<path class="st1" d="M74.9,121.3h2.7V143h6.8v2.3h-9.5V121.3z"/>
		<path class="st1" d="M87.5,123.7h-4.4v-2.5h11.5v2.5h-4.4v21.6h-2.7V123.7z"/>
		<path class="st1" d="M100.1,121.3v10.3h6.7v-10.3h2.7v24h-2.7V134h-6.7v11.2h-2.7v-24H100.1z"/>
		<path class="st1" d="M124.3,144.8c-0.7,0.4-1.9,0.6-3.4,0.6c-4.7,0-8.1-3.8-8.1-11.9c0-9.5,4.7-12.5,8.5-12.5c1.5,0,2.5,0.3,3,0.6
			l-0.6,2.3c-0.6-0.2-1.2-0.5-2.4-0.5c-2.6,0-5.6,2.5-5.6,9.8c0,7.3,2.7,9.8,5.6,9.8c1,0,2-0.2,2.5-0.5L124.3,144.8z"/>
		<path class="st1" d="M130.2,138.1l-1.6,7.2H126l5.5-24h3l5.3,24h-2.7l-1.6-7.2H130.2z M135.2,135.9l-1.2-6.1
			c-0.4-1.7-0.7-3.7-1-5.5h-0.1c-0.3,1.8-0.6,3.9-1,5.5l-1.2,6.1H135.2z"/>
		<path class="st1" d="M142.8,121.7c1.2-0.3,2.6-0.5,4-0.5c2.4,0,4.2,0.5,5.4,1.7c1.2,1.2,1.7,2.8,1.7,4.7c0,3.1-1.4,5.1-3.8,6.2
			v0.1c1.8,0.5,2.7,2.2,3.2,5.4c0.5,3.3,1,5.3,1.4,6.1h-2.8c-0.4-0.7-0.8-3-1.3-6c-0.5-3.3-1.6-4.5-3.9-4.5h-1.1v10.5h-2.7V121.7z
			 M145.6,132.7h1.1c2.6,0,4.4-1.9,4.4-4.8c0-2.8-1.1-4.5-4.1-4.5c-0.5,0-1.1,0-1.4,0.1V132.7z"/>
		<path class="st1" d="M166.1,133.9h-6v9h6.8v2.4h-9.6v-24h9.2v2.4h-6.4v7.9h6V133.9z"/>
		<path class="st1" d="M183.7,115.5v35.6h-2.2v-35.6H183.7z"/>
		<path class="st1" d="M214,134.9c-0.2-3.2-0.4-6.7-0.2-9.4h-0.1c-0.5,2.7-1.2,5.5-1.9,8.3l-3,11.3H207l-2.8-10.8
			c-0.8-3.1-1.5-6-2-8.8h-0.1c0,2.8-0.1,6.2-0.3,9.6l-0.5,10.2h-2.5l1.4-24h3l2.8,11c0.8,3.2,1.4,5.5,1.9,8.3h0.1
			c0.5-2.7,1-5,1.8-8.3l2.7-11h3.1l1.4,24h-2.6L214,134.9z"/>
		<path class="st1" d="M233.5,133.1c0,9-3.1,12.5-6.9,12.5c-4,0-6.7-4.2-6.7-12.3c0-7.9,2.8-12.3,7.1-12.3
			C231,121,233.5,125.4,233.5,133.1z M222.7,133.3c0,5,1,9.9,4,9.9c3.1,0,3.9-5.2,3.9-9.9c0-4.5-0.8-9.8-4-9.8
			C223.7,123.4,222.7,128.4,222.7,133.3z"/>
		<path class="st1" d="M236.7,121.6c1.1-0.3,2.5-0.5,4-0.5c2.2,0,4,0.5,5.3,1.7c1,1,1.6,2.4,1.6,4.1c0,2.5-1.4,4.4-3.7,5.3v0.1
			c2.8,0.7,4.5,3,4.5,6.1c0,2-0.6,3.6-1.7,4.8c-1.4,1.5-3.6,2.2-6.3,2.2c-1.8,0-2.9-0.1-3.6-0.3V121.6z M239.5,131.4h1.2
			c2.2,0,4.2-1.7,4.2-4.2c0-2.2-1-3.9-4-3.9c-0.6,0-1.1,0.1-1.5,0.2V131.4z M239.5,143.1c0.3,0.1,0.8,0.1,1.4,0.1
			c2.9,0,4.7-1.7,4.7-4.8c0-3.3-2.3-4.9-4.9-4.9h-1.2V143.1z"/>
		<path class="st1" d="M254.3,121.3v24h-2.7v-24H254.3z"/>
		<path class="st1" d="M258.6,121.3h2.7V143h6.8v2.3h-9.5V121.3z"/>
		<path class="st1" d="M273.6,121.3v24h-2.7v-24H273.6z"/>
		<path class="st1" d="M280.8,123.7h-4.4v-2.5h11.5v2.5h-4.4v21.6h-2.7V123.7z"/>
		<path class="st1" d="M294.8,145.3v-10.2l-5.3-13.9h2.9l2.1,6c0.6,1.7,1.2,3.6,1.8,5.4h0.1c0.5-1.9,1.1-3.7,1.7-5.5l2-5.9h2.9
			l-5.5,13.7v10.3H294.8z"/>
		<path class="st1" d="M319.1,115.5v35.6h-2.2v-35.6H319.1z"/>
		<path class="st1" d="M334.3,142.1c0.8,0.5,2.2,1,3.5,1c2.5,0,4-1.6,4-4.1c0-2.2-1.3-3.6-3.2-5c-1.9-1.3-4.5-3.6-4.5-6.7
			c0-3.6,2.5-6.3,6.3-6.3c1.5,0,2.8,0.5,3.4,0.9l-0.7,2.4c-0.6-0.4-1.6-0.8-2.8-0.8c-2.4,0-3.5,1.8-3.5,3.4c0,2.4,1.2,3.3,3.5,5
			c2.9,2,4.2,4.2,4.2,6.9c0,4.1-2.9,6.7-6.7,6.7c-1.6,0-3.4-0.5-4.1-1L334.3,142.1z"/>
		<path class="st1" d="M347.7,121.7c1.1-0.3,2.4-0.5,4-0.5c2.2,0,4.1,0.5,5.3,1.8c1.2,1.1,1.8,2.9,1.8,5c0,2.2-0.5,3.7-1.5,4.9
			c-1.3,1.8-3.5,2.7-5.7,2.7c-0.5,0-0.8,0-1.2,0v9.8h-2.7V121.7z M350.4,133.2c0.3,0.1,0.6,0.1,1.1,0.1c2.7,0,4.5-1.8,4.5-5.2
			c0-2.5-1-4.7-4.1-4.7c-0.6,0-1.2,0.1-1.5,0.2V133.2z"/>
		<path class="st1" d="M374.5,133.1c0,9-3.1,12.5-6.9,12.5c-4,0-6.7-4.2-6.7-12.3c0-7.9,2.8-12.3,7.1-12.3
			C372,121,374.5,125.4,374.5,133.1z M363.7,133.3c0,5,1,9.9,4,9.9c3.1,0,3.9-5.2,3.9-9.9c0-4.5-0.8-9.8-4-9.8
			C364.7,123.4,363.7,128.4,363.7,133.3z"/>
		<path class="st1" d="M377.8,121.7c1.2-0.3,2.6-0.5,4-0.5c2.4,0,4.2,0.5,5.4,1.7c1.2,1.2,1.7,2.8,1.7,4.7c0,3.1-1.4,5.1-3.8,6.2
			v0.1c1.8,0.5,2.7,2.2,3.2,5.4c0.5,3.3,1,5.3,1.4,6.1h-2.8c-0.4-0.7-0.8-3-1.3-6c-0.5-3.3-1.6-4.5-3.9-4.5h-1.1v10.5h-2.7V121.7z
			 M380.5,132.7h1.1c2.6,0,4.4-1.9,4.4-4.8c0-2.8-1.1-4.5-4.1-4.5c-0.5,0-1.1,0-1.4,0.1V132.7z"/>
		<path class="st1" d="M394.8,123.7h-4.4v-2.5h11.5v2.5h-4.4v21.6h-2.7V123.7z"/>
		<path class="st1" d="M403.6,142.1c0.8,0.5,2.2,1,3.5,1c2.5,0,4-1.6,4-4.1c0-2.2-1.3-3.6-3.2-5c-1.9-1.3-4.5-3.6-4.5-6.7
			c0-3.6,2.5-6.3,6.3-6.3c1.5,0,2.8,0.5,3.4,0.9l-0.7,2.4c-0.6-0.4-1.6-0.8-2.8-0.8c-2.4,0-3.5,1.8-3.5,3.4c0,2.4,1.2,3.3,3.5,5
			c2.9,2,4.2,4.2,4.2,6.9c0,4.1-2.9,6.7-6.7,6.7c-1.6,0-3.4-0.5-4.1-1L403.6,142.1z"/>
	</g>
	<path class="st1" d="M376.5,87.1c-7,0-12.9-4.7-14.8-11h39.5c0.3-1.4,0.4-2.9,0.4-4.4c0-13.9-11.2-25.1-25.1-25.1
		c-13.9,0-25.1,11.2-25.1,25.1c0,13.9,11.2,25.1,25.1,25.1c9,0,15.3-4.7,17.8-7.4l-6.8-6.8C387.5,82.5,383.2,87.1,376.5,87.1z
		 M376.5,56.2c7,0,12.9,4.7,14.8,11h-29.6C363.6,60.8,369.5,56.2,376.5,56.2z"/>
	<g>
		<path class="st2" d="M313.2,5.6c8.4,0,16,3.4,21.6,8.9l3.9-3.9C332.2,4.1,323.1,0,313.2,0c-10.1,0-19.1,3.9-25.7,10.4l4.1,4.1
			C297.2,9,304.8,5.6,313.2,5.6z"/>
		<path class="st2" d="M313.2,15.9c5.6,0,10.7,2.3,14.4,5.9l4-4c-4.7-4.7-11.2-7.6-18.3-7.6c-7.2,0-13.7,2.8-18.4,7.4l4,4
			C302.5,18.1,307.6,15.9,313.2,15.9z"/>
		<path class="st2" d="M313.2,26.1c2.8,0,5.3,1.1,7.1,2.9l4-4c-2.9-2.8-6.8-4.5-11.1-4.6c-4.4,0-8.3,1.7-11.1,4.5l4,4
			C307.9,27.2,310.4,26.1,313.2,26.1z"/>
		<path class="st2" d="M317.1,32.3c-1-1-2.4-1.5-3.8-1.5c-1.5,0-2.9,0.6-3.9,1.5l3.9,3.9L317.1,32.3z"/>
		<path class="st2" d="M317.1,40c1-1,1.5-2.4,1.5-3.8c0-1.5-0.6-2.9-1.5-3.9l-3.9,3.9L317.1,40z"/>
		<path class="st2" d="M309.4,40c1,0.9,2.4,1.5,3.8,1.5c1.5,0,2.9-0.6,3.9-1.5l-3.9-3.9L309.4,40z"/>
		<path class="st2" d="M309.4,32.2c-1,1-1.5,2.4-1.5,3.8c0,1.5,0.6,2.9,1.5,3.9l3.9-3.9L309.4,32.2z"/>
		<ellipse class="st2" cx="304.1" cy="27" rx="2.8" ry="2.8"/>

			<ellipse transform="matrix(0.7395 -0.6732 0.6732 0.7395 65.8141 223.9423)" class="st2" cx="322.2" cy="26.9" rx="2.8" ry="2.8"/>

			<ellipse transform="matrix(0.7071 -0.7071 0.7071 0.7071 73.0223 215.6351)" class="st2" cx="296.8" cy="19.7" rx="2.8" ry="2.8"/>
		<path class="st2" d="M291.6,10.4c1.1,1.1,1.2,3,0.1,4.1c-1.1,1.1-2.9,1.1-4.1-0.1c-1.1-1.1-1.2-3-0.1-4.1
			C288.6,9.3,290.4,9.3,291.6,10.4z"/>
		<path class="st2" d="M338.5,14.5c-1.1,1-2.9,0.9-3.9-0.2c-1-1.1-1-2.9,0.2-3.9c1.1-1,2.9-0.9,3.9,0.2
			C339.8,11.7,339.7,13.4,338.5,14.5z"/>
		<path class="st2" d="M331.3,21.8c-1.1,1-2.9,1-4-0.2c-1-1.1-1-2.9,0.2-4c1.1-1,2.9-1,4,0.2C332.6,18.9,332.5,20.7,331.3,21.8z"/>
	</g>
	<rect x="307.8" y="30.7" class="st3" width="10.7" height="17.3"/>
	<path class="st0" d="M438.5,56.1c-2.9,1.5-5.8,3.1-8.8,4.7c0,0-1.5-4.3-4.3-4.3c-2.5,0-3.8,0.8-4.4,2c-0.7,1.5-0.4,2.8,0.8,4
		c1.5,1.5,3.4,2.3,5.3,3.1c2.7,1.2,5.4,2.6,8,4c8.4,4.7,7.7,14.5,4,19.8c-4.2,6-10.2,7.9-17.2,7.1c-6.9-0.8-9.9-5.9-13.5-11.8
		l8.4-3.7c0,0,1.4,2.5,2,3.4c1.9,2.7,4.7,2.7,7.8,2.3c3.6-0.6,5.2-4.6,2.9-7.6c-1.1-1.5-2.6-2.5-4.3-3.3c-2.6-1.2-5.2-2.4-7.7-3.8
		c-5.9-3.2-7.9-7.3-6.9-13.8c0.8-5.3,5.4-10.1,11-11.2C429.1,45.5,435.7,49,438.5,56.1z"/>
</g>
</svg>
